<?xml version="1.0" standalone="no"?>
<!DOCTYPE svg PUBLIC "-//W3C//DTD SVG 20010904//EN"
 "http://www.w3.org/TR/2001/REC-SVG-20010904/DTD/svg10.dtd">
<svg version="1.0" xmlns="http://www.w3.org/2000/svg"
 width="512.000000pt" height="512.000000pt" viewBox="0 0 512.000000 512.000000"
 preserveAspectRatio="xMidYMid meet">

<g transform="translate(0.000000,512.000000) scale(0.100000,-0.100000)"
fill="#000000" stroke="none">
<path d="M1409 4900 c-126 -22 -234 -137 -246 -264 -2 -28 32 -479 76 -1003
45 -523 81 -954 81 -957 0 -3 558 -6 1239 -6 l1239 0 6 58 c28 254 156 1868
153 1908 -10 101 -84 201 -182 246 l-50 23 -1135 1 c-624 1 -1156 -2 -1181 -6z"/>
<path d="M1042 2439 c-144 -72 -145 -286 -3 -359 40 -20 53 -20 1523 -20
l1483 0 40 23 c21 12 53 42 69 65 26 37 31 53 31 105 0 78 -26 131 -84 172
l-43 30 -1486 3 -1487 2 -43 -21z"/>
<path d="M1240 1025 l0 -815 149 0 c134 0 150 2 154 18 3 9 25 196 48 415 l44
397 927 0 c515 0 928 -4 928 -9 0 -4 20 -190 45 -411 25 -221 45 -404 45 -407
0 -2 69 -2 153 -1 l152 3 3 813 2 812 -245 0 c-135 0 -245 -1 -245 -3 0 -2 14
-126 30 -277 17 -151 30 -284 30 -297 l0 -23 -900 0 c-771 0 -900 2 -900 14 0
8 14 134 30 281 17 147 30 275 30 286 0 18 -10 19 -240 19 l-240 0 0 -815z"/>
</g>
</svg>
