<?xml version="1.0" standalone="no"?>
<!DOCTYPE svg PUBLIC "-//W3C//DTD SVG 20010904//EN"
 "http://www.w3.org/TR/2001/REC-SVG-20010904/DTD/svg10.dtd">
<svg version="1.0" xmlns="http://www.w3.org/2000/svg"
 width="512.000000pt" height="512.000000pt" viewBox="0 0 512.000000 512.000000"
 preserveAspectRatio="xMidYMid meet">

<g transform="translate(0.000000,512.000000) scale(0.100000,-0.100000)"
fill="#000000" stroke="none">
<path d="M1092 5103 c-66 -32 -161 -166 -208 -293 -38 -100 -58 -231 -49 -313
l7 -59 -59 7 c-131 15 -334 -38 -458 -120 -90 -59 -152 -126 -161 -170 -14
-78 4 -106 205 -309 321 -325 417 -397 597 -447 100 -28 265 -31 367 -6 54 13
153 54 229 95 18 9 196 -242 277 -390 l43 -78 -126 0 c-151 0 -193 -15 -226
-80 -38 -75 -24 -121 76 -238 150 -175 232 -386 190 -486 -23 -55 -84 -141
-204 -290 -294 -363 -393 -611 -378 -941 25 -540 317 -855 891 -961 142 -26
760 -27 905 -2 406 72 658 242 800 539 89 186 122 442 85 655 -44 247 -135
420 -392 742 -72 89 -145 191 -163 227 -29 58 -32 70 -26 119 13 117 91 271
200 398 100 117 114 163 76 238 -33 65 -75 80 -225 80 l-127 0 40 74 c77 143
262 403 280 394 161 -85 256 -112 407 -112 132 0 229 24 347 86 96 50 188 130
434 379 207 209 224 236 210 315 -15 75 -173 197 -324 248 -92 32 -220 49
-292 41 l-56 -6 0 108 c-1 173 -51 320 -153 455 -61 81 -100 109 -156 116 -35
3 -53 -1 -87 -21 -51 -30 -490 -471 -537 -540 -89 -131 -134 -271 -135 -427
-1 -133 21 -230 78 -343 l43 -86 -64 -78 c-99 -120 -214 -300 -295 -459 l-73
-144 -97 0 -98 0 0 318 0 317 36 20 c63 34 143 124 185 210 74 153 93 298 65
495 -79 535 -295 826 -533 716 -158 -74 -283 -338 -339 -716 -18 -128 -15
-267 11 -360 37 -141 145 -294 241 -346 l34 -19 0 -317 0 -318 -97 0 -98 0
-73 144 c-81 159 -196 339 -295 459 l-64 78 42 83 c107 214 108 462 0 675 -49
99 -127 190 -362 423 -245 244 -281 265 -371 221z"/>
</g>
</svg>
