<?xml version="1.0" standalone="no"?>
<!DOCTYPE svg PUBLIC "-//W3C//DTD SVG 20010904//EN"
 "http://www.w3.org/TR/2001/REC-SVG-20010904/DTD/svg10.dtd">
<svg version="1.0" xmlns="http://www.w3.org/2000/svg"
 width="512.000000pt" height="512.000000pt" viewBox="0 0 512.000000 512.000000"
 preserveAspectRatio="xMidYMid meet">

<g transform="translate(0.000000,512.000000) scale(0.100000,-0.100000)"
fill="#000000" stroke="none">
<path d="M1617 4374 c-151 -23 -312 -79 -430 -150 -351 -211 -571 -559 -606
-958 -27 -306 59 -603 243 -846 41 -54 360 -380 863 -882 707 -706 802 -797
836 -803 94 -18 43 -62 910 803 503 502 822 828 863 882 163 216 246 463 246
740 0 277 -82 523 -247 742 -348 463 -979 617 -1503 368 -57 -27 -132 -70
-168 -94 l-64 -45 -64 45 c-243 169 -578 245 -879 198z m336 -319 c174 -30
324 -102 452 -215 78 -69 99 -80 155 -80 55 0 77 11 150 75 397 347 989 299
1313 -105 133 -167 198 -353 198 -570 0 -210 -61 -393 -186 -555 -30 -38 -374
-389 -765 -780 l-710 -710 -734 735 c-789 791 -802 806 -866 972 -45 117 -62
208 -62 338 0 68 6 145 16 187 105 480 562 791 1039 708z"/>
</g>
</svg>
