<?xml version="1.0" standalone="no"?>
<!DOCTYPE svg PUBLIC "-//W3C//DTD SVG 20010904//EN"
 "http://www.w3.org/TR/2001/REC-SVG-20010904/DTD/svg10.dtd">
<svg version="1.0" xmlns="http://www.w3.org/2000/svg"
 width="512.000000pt" height="512.000000pt" viewBox="0 0 512.000000 512.000000"
 preserveAspectRatio="xMidYMid meet">

<g transform="translate(0.000000,512.000000) scale(0.100000,-0.100000)"
fill="#000000" stroke="none">
<path d="M3473 4465 c-101 -28 -133 -52 -375 -293 -207 -205 -238 -240 -238
-267 0 -27 60 -90 508 -538 445 -444 511 -507 538 -507 25 0 62 33 266 238
197 197 241 247 263 295 39 84 52 172 38 253 -22 129 -41 154 -344 459 -169
170 -300 293 -332 312 -97 59 -217 77 -324 48z"/>
<path d="M1606 2678 l-966 -973 0 -532 0 -533 533 0 532 0 973 968 c867 862
973 970 973 997 -1 26 -68 97 -509 538 -455 455 -510 507 -539 507 -28 0 -123
-92 -997 -972z"/>
<path d="M2930 789 c-14 -6 -36 -20 -48 -32 -78 -72 -68 -185 21 -251 28 -21
32 -21 832 -21 796 0 804 0 831 21 53 39 69 71 69 134 0 63 -16 95 -69 134
-27 21 -37 21 -819 23 -513 1 -801 -2 -817 -8z"/>
</g>
</svg>
