<?xml version="1.0" standalone="no"?>
<!DOCTYPE svg PUBLIC "-//W3C//DTD SVG 20010904//EN"
 "http://www.w3.org/TR/2001/REC-SVG-20010904/DTD/svg10.dtd">
<svg version="1.0" xmlns="http://www.w3.org/2000/svg"
 width="512.000000pt" height="512.000000pt" viewBox="0 0 512.000000 512.000000"
 preserveAspectRatio="xMidYMid meet">

<g transform="translate(0.000000,512.000000) scale(0.100000,-0.100000)"
fill="#000000" stroke="none">
<path d="M1578 4900 c-172 -30 -326 -143 -398 -295 -22 -46 -102 -351 -286
-1092 -280 -1126 -271 -1081 -224 -1191 29 -68 112 -144 182 -169 51 -17 129
-18 1708 -18 1579 0 1657 1 1708 18 70 25 153 101 182 169 47 110 56 65 -224
1192 -188 755 -265 1047 -288 1095 -38 80 -149 196 -223 233 -130 66 -61 63
-1125 64 -531 1 -986 -2 -1012 -6z"/>
<path d="M1490 1754 c0 -188 9 -222 65 -248 41 -20 49 -20 90 0 56 26 65 60
65 248 l0 166 -110 0 -110 0 0 -166z"/>
<path d="M2240 1495 l0 -425 320 0 320 0 0 425 0 425 -320 0 -320 0 0 -425z"/>
<path d="M1250 830 c-166 -60 -274 -202 -287 -375 -5 -63 -2 -75 24 -125 21
-40 42 -63 78 -85 l48 -30 1447 0 1447 0 48 30 c36 22 57 45 78 85 26 50 29
62 24 125 -10 135 -79 255 -190 326 -114 74 -21 69 -1411 69 -1218 -1 -1252
-1 -1306 -20z"/>
</g>
</svg>
