<?xml version="1.0" standalone="no"?>
<!DOCTYPE svg PUBLIC "-//W3C//DTD SVG 20010904//EN"
 "http://www.w3.org/TR/2001/REC-SVG-20010904/DTD/svg10.dtd">
<svg version="1.0" xmlns="http://www.w3.org/2000/svg"
 width="512.000000pt" height="512.000000pt" viewBox="0 0 512.000000 512.000000"
 preserveAspectRatio="xMidYMid meet">

<g transform="translate(0.000000,512.000000) scale(0.100000,-0.100000)"
fill="#000000" stroke="none">
<path d="M810 2990 l0 -2130 833 2 832 3 3 2128 2 2127 -835 0 -835 0 0 -2130z
m1447 -104 l28 -24 0 -236 c0 -230 -1 -236 -22 -258 -33 -33 -89 -30 -119 6
-24 27 -24 29 -24 254 1 236 2 245 45 270 31 18 62 14 92 -12z"/>
<path d="M2642 2993 l3 -2128 833 -3 832 -2 0 2130 0 2130 -835 0 -835 0 2
-2127z m311 -95 c45 -23 46 -32 47 -270 0 -225 0 -227 -24 -254 -30 -36 -86
-39 -119 -6 -21 22 -22 28 -22 258 l0 236 28 24 c31 26 57 30 90 12z"/>
<path d="M810 410 l0 -280 120 0 120 0 0 -40 c0 -30 7 -47 25 -65 49 -50 121
-16 132 62 l6 43 631 2 631 3 3 278 2 277 -835 0 -835 0 0 -280z"/>
<path d="M2642 413 l3 -278 631 -3 631 -2 6 -43 c11 -78 83 -112 132 -62 18
18 25 35 25 65 l0 40 120 0 120 0 0 280 0 280 -835 0 -835 0 2 -277z"/>
</g>
</svg>
